<svg height="512pt" viewBox="0 0 512.00062 512" width="512pt" xmlns="http://www.w3.org/2000/svg">
 
<path style="fill:red;" d="m188.550781 30.894531c-.015625.21875-.035156.433594-.0625.648438-.042969.386719-4.492187 40.0625.535157 91.648437 2.75 28.222656 8.769531 63.632813 21.550781 98.578125 11.046875-18.785156 24.765625-37.105469 41.039062-54.734375 19.550781-21.175781 42.808594-41.429687 69.128907-60.195312 43.023437-30.671875 79.683593-47.082032 83.75-48.867188l8.523437-4.128906c-14.960937-11.570312-31.316406-21.5625-48.878906-29.753906-55.03125-25.65625-116.015625-30.894532-173.976563-15.355469zm0 0"/><path style="fill:red;" d="m417.292969 85.089844c-.195313.097656-.394531.1875-.589844.273437-.359375.152344-36.945313 16.140625-79.101563 46.285157-20.351562 14.550781-44.277343 34.101562-66.023437 58.101562l12.890625 10.816406c51.214844 4.253906 98.78125 21.214844 133.25 36.933594 48.074219 21.925781 80.613281 45.464844 84.1875 48.09375l7.699219 5.222656c5.652343-40.769531 1.316406-82.5625-13.160157-122.339844-12.9375-35.542968-33.117187-67.109374-59.050781-93.121093zm0 0"/><path style="fill:red;" d="m484.824219 310.238281c-.179688-.121093-.359375-.246093-.53125-.378906-.3125-.230469-32.449219-23.917969-79.632813-45.355469-22.839844-10.378906-51.832031-21.359375-83.601562-28.191406l-2.871094 16.300781c22.015625 46.5625 31.140625 96.351563 34.769531 134.132813 5.050781 52.605468.933594 92.558594.445313 96.964844l-.664063 9.136718c59.898438-24.402344 107.671875-69.785156 135.160157-128.726562 6.300781-13.511719 11.371093-27.382813 15.207031-41.480469zm0 0"/><path style="fill:red;" d="m323.515625 481.238281c.015625-.21875.035156-.433593.0625-.648437.042969-.386719 4.492187-40.0625-.535156-91.644532-2.429688-24.953124-7.417969-55.519531-17.367188-86.417968l-15.832031 5.761718c-8.65625 12.523438-18.519531 24.804688-29.5625 36.765626-19.550781 21.175781-42.808594 41.429687-69.128906 60.195312-43.023438 30.671875-79.679688 47.082031-83.75 48.867188l-8.371094 4.054687c14.945312 11.558594 31.285156 21.535156 48.828125 29.714844 34.398437 16.039062 71.121094 24.105469 107.980469 24.105469 22.132812 0 44.320312-2.910157 66.078125-8.75zm0 0"/><path style="fill:red;" d="m27.167969 201.800781c.179687.125.355469.25.53125.378907.3125.230468 32.449219 23.921874 79.632812 45.359374 22.824219 10.371094 51.785157 21.335938 83.515625 28.167969l2.902344-16.464843c-21.921875-46.480469-31.015625-96.148438-34.640625-133.855469-5.050781-52.601563-.933594-92.554688-.445313-96.964844l.679688-9.324219c-59.941406 24.394532-107.746094 69.792969-135.242188 128.761719-6.3125 13.527344-11.386718 27.421875-15.222656 41.535156zm0 0"/><path style="fill:red;" d="m94.601562 426.996094c.195313-.09375.394532-.183594.59375-.269532.355469-.15625 36.941407-16.140624 79.101563-46.285156 20.367187-14.566406 44.3125-34.132812 66.074219-58.160156l-12.882813-10.808594c-51.203125-4.261718-98.75-21.214844-133.210937-36.929687-48.074219-21.921875-80.613282-45.460938-84.191406-48.09375l-7.699219-5.222657c-5.636719 40.75-1.300781 82.519532 13.167969 122.277344 12.945312 35.558594 33.140624 67.140625 59.09375 93.160156zm0 0"/></svg>